<svg xmlns="http://www.w3.org/2000/svg" viewBox="0 0 960 540" role="img" aria-labelledby="t d"><title id="t">Distribution</title><desc id="d">Warehouse aisles, inventory and outbound distribution.</desc><defs><linearGradient id="bg" x1="0" y1="0" x2="1" y2="1"><stop stop-color="#e8f4ff"/><stop offset="1" stop-color="#e5faf5"/></linearGradient><linearGradient id="g" x1="0" x2="1"><stop stop-color="#173f73"/><stop offset="1" stop-color="#13a89e"/></linearGradient></defs><rect width="960" height="540" rx="36" fill="url(#bg)"/><path d="M110 110h740v330H110z" fill="#fff" opacity=".9"/><path d="M480 440V110" stroke="#dbeafe" stroke-width="12"/><g stroke="#173f73" stroke-width="15" fill="none"><path d="M160 140v260M310 140v260M650 140v260M800 140v260"/><path d="M145 205h180M145 290h180M145 375h180M635 205h180M635 290h180M635 375h180"/></g><g fill="#0f8f87"><rect x="176" y="158" width="48" height="35" rx="5"/><rect x="234" y="158" width="48" height="35" rx="5"/><rect x="176" y="243" width="48" height="35" rx="5"/><rect x="234" y="243" width="48" height="35" rx="5"/><rect x="176" y="328" width="48" height="35" rx="5"/><rect x="234" y="328" width="48" height="35" rx="5"/></g><g fill="#f59e0b"><rect x="678" y="158" width="48" height="35" rx="5"/><rect x="736" y="158" width="48" height="35" rx="5"/><rect x="678" y="243" width="48" height="35" rx="5"/><rect x="736" y="243" width="48" height="35" rx="5"/><rect x="678" y="328" width="48" height="35" rx="5"/><rect x="736" y="328" width="48" height="35" rx="5"/></g><g transform="translate(392 286)"><path d="M0 34h122l28 65H18z" fill="url(#g)"/><rect x="20" y="0" width="66" height="51" rx="8" fill="#173f73"/><circle cx="39" cy="109" r="16" fill="#173f73"/><circle cx="122" cy="109" r="16" fill="#173f73"/></g><path d="M370 445h220" stroke="#0f8f87" stroke-width="10" stroke-linecap="round" opacity=".25"/></svg>